<svg width="194" height="46" viewBox="0 0 194 46" fill="none" xmlns="http://www.w3.org/2000/svg">
<path d="M18.9886 36.5606C19.0231 36.6616 19.0489 36.7465 19.0681 36.8169L14.8608 41.9284L21.851 40.4456C22.357 40.3382 23.428 40.1492 24.9043 39.8886C25.5575 39.7733 26.29 39.644 27.088 39.5015C29.639 39.0462 32.7656 38.4725 35.802 37.8406C38.8205 37.2123 41.8235 36.5115 44.0999 35.7951C45.2212 35.4422 46.2843 35.0496 47.1093 34.6103C47.5137 34.395 47.9868 34.1034 48.3918 33.7108C48.7636 33.3506 49.4048 32.5843 49.4048 31.4452C49.4048 30.4414 48.9072 29.7048 48.6128 29.3353C48.2797 28.9172 47.8746 28.5601 47.5007 28.2678C46.7449 27.6768 45.7547 27.0742 44.7064 26.4914C42.8382 25.4528 40.4525 24.2976 38.1406 23.1781C37.8398 23.0324 37.5401 22.8873 37.2431 22.7432C34.6787 21.4988 32.3204 20.332 30.6981 19.3504C31.1737 19.1089 31.7082 18.8801 32.301 18.6651C33.8391 18.107 35.6105 17.6974 37.4454 17.369C45.5982 15.9098 54.593 16.1285 63.4108 16.3429C64.626 16.3725 65.8378 16.4019 67.0436 16.4269C74.3035 16.5773 81.3737 17.0516 88.5147 17.5306C93.4255 17.86 98.3697 18.1917 103.432 18.4218C108.5 18.6521 113.618 18.6969 118.686 18.7412C120.227 18.7546 121.763 18.7681 123.292 18.7867C129.883 18.8668 136.379 19.0426 142.761 19.7123C148.031 20.2653 153.041 21.2811 158.169 22.3207C159.594 22.6097 161.029 22.9006 162.481 23.1839C169.092 24.4738 175.944 25.5776 183.394 25.413C184.799 25.3819 186.073 25.2437 187.171 24.9536C188.251 24.668 189.341 24.188 190.178 23.3427C191.083 22.4285 191.513 21.267 191.5 20.0394C191.488 18.9038 191.103 17.8161 190.604 16.8476C189.903 15.4874 188.63 14.5973 187.524 14.0048C186.358 13.3799 184.997 12.8891 183.672 12.4936C181.573 11.8671 179.263 11.3986 177.535 11.0483C177.098 10.9596 176.698 10.8785 176.349 10.8043C166.957 8.81208 157.523 7.75085 147.871 6.87332C143.275 6.45549 138.66 6.0013 134.03 5.54571C122.743 4.4349 111.37 3.31571 99.9835 2.69462C87.4101 2.00877 76.3111 3.13218 64.6533 6.12122C61.7021 6.87791 57.3404 6.96257 52.0171 6.65571C47.789 6.41199 43.1606 5.93792 38.4209 5.45246C37.2526 5.3328 36.0775 5.21244 34.9 5.09468C28.9974 4.50432 23.0448 3.98051 17.8422 3.99328C12.7423 4.0058 7.91038 4.52322 4.52309 6.33969C3.64289 6.81171 3.0103 7.57008 2.70623 8.5029C2.42854 9.35481 2.47325 10.1965 2.59633 10.8752C2.837 12.2024 3.51882 13.6386 4.28587 14.9872C5.85444 17.745 8.36633 21.1207 10.8048 24.3608C11.0033 24.6245 11.2014 24.8875 11.3988 25.1495C13.686 28.1856 15.8753 31.0917 17.3861 33.4995C18.2135 34.818 18.7427 35.8416 18.9886 36.5606ZM29.1477 18.2458C29.1228 18.2183 29.1273 18.2187 29.1481 18.2462C29.1479 18.2461 29.1478 18.2459 29.1477 18.2458ZM19.1182 37.0497C19.1225 37.0833 19.1218 37.0982 19.1205 37.0973C19.1191 37.0963 19.117 37.0795 19.1182 37.0497Z" fill="#F20034" stroke="#F20034" stroke-width="5" stroke-linecap="round"/>
</svg>
