<svg width="86" height="86" viewBox="0 0 86 86" fill="none" xmlns="http://www.w3.org/2000/svg">
<path d="M21.8356 45.2581C17.9896 44.3155 13.3899 43.6178 7.87317 42.982C13.3899 42.3464 17.9896 41.6489 21.8355 40.7063C27.3758 39.3485 31.4357 37.4638 34.4498 34.4498C37.4638 31.4357 39.3485 27.3758 40.7063 21.8355C41.6488 17.9898 42.3464 13.3905 42.9819 7.87427C43.6175 13.3905 44.315 17.9898 45.2576 21.8355C46.6153 27.3758 48.5 31.4357 51.5141 34.4498C54.5281 37.4638 58.588 39.3485 64.1283 40.7063C67.9741 41.6488 72.5736 42.3464 78.0902 42.982C72.5743 43.6175 67.9751 44.3151 64.1296 45.2576C58.5893 46.6153 54.5295 48.5 51.5154 51.5141C48.5013 54.5281 46.6166 58.588 45.2589 64.1283C44.3163 67.9743 43.6187 72.574 42.9831 78.0907C42.3474 72.5741 41.6495 67.9744 40.7068 64.1284C39.3488 58.5883 37.464 54.5285 34.4498 51.5145C31.4358 48.5006 27.3758 46.616 21.8356 45.2581Z" fill="#F20034" stroke="black" stroke-width="2.28571"/>
</svg>
